<svg width="273.68155mm" height="82.78392mm" version="1.1" viewBox="0 0 273.68155 82.78392" xmlns="http://www.w3.org/2000/svg"><g transform="translate(17.872482,-128.53722)"><g style="fill:#333;stroke-width:1.6995" aria-label="MUM"><path d="m54.39002 209.47122-0.23124-36.88278-17.574241 29.59872h-12.02448l-17.57424-28.3269v35.61096h-24.858301v-80.934h22.430281l26.36136 43.12626 25.667641-43.12626h22.43028l0.231241 80.934z" style="fill:#333;stroke-width:1.6995"/><path d="m118.96373 211.32114q-18.61482 0-29.020616-10.05894-10.4058-10.05894-10.4058-28.21128v-44.5137h27.286316v43.70436q0 8.90274 3.12174 12.94944 3.23736 4.0467 9.2496 4.0467t9.13398-4.0467q3.23737-4.0467 3.23737-12.94944v-43.70436h26.82384v44.5137q0 18.15234-10.4058 28.21128t-29.02063 10.05894z" style="fill:#333;stroke-width:1.6995"/><path d="m230.95069 209.47122-0.23124-36.88278-17.57424 29.59872h-12.02448l-17.57424-28.3269v35.61096h-24.8583v-80.934h22.43028l26.36136 43.12626 25.66764-43.12626h22.43028l0.23124 80.934z" style="fill:#333;stroke-width:1.6995"/></g></g></svg>
